<svg id="visual" viewBox="0 0 540 960" width="540" height="960" xmlns="http://www.w3.org/2000/svg" xmlns:xlink="http://www.w3.org/1999/xlink" version="1.1"><rect x="0" y="0" width="540" height="960" fill="#242424"></rect><path d="M0 446L22.5 449.3C45 452.7 90 459.3 135 466.5C180 473.7 225 481.3 270 470C315 458.7 360 428.3 405 420.2C450 412 495 426 517.5 433L540 440L540 0L517.5 0C495 0 450 0 405 0C360 0 315 0 270 0C225 0 180 0 135 0C90 0 45 0 22.5 0L0 0Z" fill="#2b7fff" stroke-linecap="round" stroke-linejoin="miter"></path></svg>